<?xml version="1.0" encoding="utf-8"?>
<!-- Generator: Adobe Illustrator 19.0.0, SVG Export Plug-In . SVG Version: 6.00 Build 0)  -->
<svg version="1.1" id="Layer_1" xmlns="http://www.w3.org/2000/svg" xmlns:xlink="http://www.w3.org/1999/xlink" x="0px" y="0px"
	 viewBox="0 0 128 162" style="enable-background:new 0 0 128 162;" xml:space="preserve">
<style type="text/css">
	.st0{clip-path:url(#XMLID_85_);fill:#303346;}
	.st1{clip-path:url(#XMLID_85_);fill:#424556;}
</style>
<g id="XMLID_2_">
	<defs>
		<rect id="XMLID_3_" width="114.8" height="162"/>
	</defs>
	<clipPath id="XMLID_85_">
		<use xlink:href="#XMLID_3_"  style="overflow:visible;"/>
	</clipPath>
	<path id="XMLID_33_" class="st0" d="M43.5,149.8c0.1,0,0.2-0.1,0.3-0.1c-0.1-0.4-0.1-0.8-0.2-1.3c-0.1,0-0.2,0-0.3-0.1
		c-0.1,0.3-0.3,0.5-0.3,0.8C43.1,149.3,43.4,149.5,43.5,149.8 M36.7,84.4c1,0.2,1.9,0.4,2.8,0.6c0.1-0.2,0.3-0.6,0.5-1.2
		C38.8,84.4,37.6,83.5,36.7,84.4 M62.1,89.7c0.1-0.2,0.2-0.6,0.3-0.9c-0.4,0-0.8,0-1.2,0.1c-0.3,0.1-0.8,0.2-0.8,0.3
		c-0.1,0.3,0.1,0.7,0.2,1C61.2,90,61.5,89.9,62.1,89.7 M51.8,84.9c0,0.1,0.1,0.1,0.1,0.2c0.1-0.2,0.2-0.4,0.3-0.6
		c0.1-0.2,0.1-0.4,0.1-0.6c-0.2,0-0.4-0.1-0.6-0.1c-1.4,0.2-1.4,0.2-1.5,1.4c0,0.1,0,0.2,0.1,0.4C50.9,85.4,51.3,85.2,51.8,84.9
		 M106.3,77.9c0.3-0.5,0.5-1,0.7-1.5c0.3,0.4,0.5,0.6,0.7,0.9c0.1,0,0.1-0.1,0.2-0.1c-0.3-0.6-0.5-1.1-0.9-1.9c-0.2,0-0.8-0.2-1,0
		C105.3,76.2,105.9,77,106.3,77.9 M64.8,145.7c0.3,0.1,0.6,0.1,0.7,0.3c0.5,0.9,1.2,0.9,1.8,0.2c0.2-0.2,0.3-0.5,0.5-0.7
		c-0.3-0.2-0.7-0.4-1-0.5c-0.2-0.1-0.6,0.2-0.8,0.1C65,144.4,65,145.3,64.8,145.7 M97.1,72.9c1.8-0.3,2.9-1.4,3.8-2.9
		c0.8-1.5,1.6-3,2.4-4.5c-0.1,0-0.1-0.1-0.2-0.1C101.4,68.1,99.9,70.9,97.1,72.9 M46.2,154.8c0.4-1.3,0.8-2.4,1.2-3.6
		c0-0.1,0-0.2,0-0.3c-0.2-0.3-0.5-0.6-0.7-0.8c-0.2,0.2-0.5,0.4-0.6,0.6c-0.3,0.8-0.5,1.6-0.7,2.5C45.3,153.8,45.5,154.4,46.2,154.8
		 M81.3,81.2c1.8,0.5,2.8,1.4,3.4,2.8c0,0.1,0.3,0.2,0.5,0.1c0.3-0.1,0.7-0.1,1-0.3c1.4-0.7,2.9-1.4,4.3-2.1
		c0.1-0.1,0.2-0.6,0.1-0.7c-0.4-0.4-2.1-0.6-2.6-0.3c-0.8,0.4-1.1,0.5-2.1,0.6c-0.3,0-0.6,0-1.2,0.1c0.3-0.3,0.4-0.4,0.5-0.5
		c-0.1-0.1-0.2-0.2-0.3-0.3c-0.2,0-0.4,0-0.6,0.1c-0.7,0.2-1.4,0.3-2.2,0.5c0.1-0.3,0.1-0.4,0.2-0.8C82,80.8,81.8,80.9,81.3,81.2
		 M53.1,127.8c-0.2,0.4-0.5,0.8-0.6,1.2c-0.2,1.1-0.4,2.3-0.6,3.5c-0.1,0.6-0.2,1.2-0.2,1.8c0,1.3,0.1,2.5,0.2,3.8
		c0,0.1,0.1,0.3,0.1,0.3c0.9,0.1,0.7,0.9,1,1.4c0.4,0.7,0.8,1.5,1.3,2.4c0.5-2.3,0.9-2.5,2.8-1.7c0.1-0.2,0.2-0.5,0.3-0.7
		c0.6,0.2,0.7,1.4,1.7,0.9c0.6-0.3,1.2-0.5,1.7-0.8c0.5,0.2,1,0.3,1.5,0.5c0.5,0.2,1,0.4,1.5,0.7c-0.1,1.3,0.4,2.2,1.3,3
		c0.5-1.1,1-2.1,1.5-3.1c0.4,0.3,0.8,0.6,1.1,0.9c-0.1,0.3-0.3,0.6-0.5,1.1c0.4,0.1,0.8,0.4,1,0.3c1.4-0.5,2.7-1.1,4-1.7
		c2.3-1.2,4.3-4.4,3.3-7.5c-0.1-0.2,0-0.4,0-0.9c0.8,1.6,1.4,0.8,1.9,0.2c0.1-0.7,0.2-1.4,0.3-2.1c0.1,0,0.4,0,0.8-0.1
		c-0.2-1-0.4-1.9-0.6-2.7c0-0.2-0.1-0.4,0-0.6c0.7-1.4,0.2-2.5-0.7-3.6c-0.2-0.3-0.3-0.7-0.4-1c-0.1-1,0.2-2.2-1.1-2.7
		c-0.1,0-0.1-0.3-0.2-0.4c-0.3-0.6-0.8-1.1-0.1-1.8c0,0-0.1-0.2-0.1-0.2c-0.5-1.2-0.9-2.4-1.4-3.6c-0.6-1.5-1.4-2.7-3-3.4
		c-1.2-0.5-2.1-0.2-2.7,0.9c-0.1,0.2-0.3,0.3-0.5,0.6c-0.7-0.6-1.3-1.1-1.9-1.7c-0.7-0.7-1.4-0.8-1.9-0.1c-0.4,0.1-0.8,0.2-1,0.5
		c-0.6,0.6-1.6,0.5-2-0.3c-0.1-0.2-0.2-0.5-0.4-0.5c-0.6-0.1-1.3-0.1-1.9-0.1c-0.1,1.1-1.8,3.4-2.5,3.6c-0.2,1-0.1,2.1-0.6,2.8
		c-0.7,1.1-0.6,2.1-0.7,3.2c-0.1,0.7,0.5,1.9-0.8,2.3c0,0-0.1,0.4,0,0.4c0.9,0.8,0.2,1.5-0.2,2.1c-0.3,0.5-0.5,1-0.8,1.6H54
		c-0.1,0.6-0.1,1.1-0.2,1.7C53.5,128,53.2,127.9,53.1,127.8 M25.7,76.7c-0.4,0.1-0.8,0.1-1.1,0.3c-0.2,0.1-0.4,0.4-0.4,0.6
		c0,0.2,0.2,0.4,0.3,0.6c0.2-0.1,0.4-0.2,0.5-0.3C25.4,77.4,25.5,77,25.7,76.7c0.1,0.5,0.2,1,0.4,1.6c0.1,0,0.2,0,0.4,0
		c0.1-0.4,0.2-0.8,0.4-1.2c-0.3-0.1-0.7-0.1-1-0.2C25.8,76.8,25.8,76.7,25.7,76.7 M110.3,78.9c-0.7,0.2-0.8,0.7-0.4,1.2
		c-0.2,0.5-0.4,0.9-0.4,1.3c0.1,1.1,0.1,2.2,0.4,3.3c0.2,1,0.7,2,1.1,3c0.1,0.2,0,0.5,0,0.5c-0.7,0.1-0.4,0.6-0.4,0.9
		c0.2,1.1,0.5,2.2,0.7,3.4c-0.5,0.3-1,0.7-1.6,1.1c-0.2,0.1-0.6,0.1-0.7,0c-0.6-1.1-1.7-1.5-2.6-2.2c-0.5-0.4-0.8-1.2-1.7-1.1
		c0.2-1.2-0.9-0.6-1.4-0.9c-0.5-0.4-1.1-0.8-1.7-1.1c-0.8-0.4-1.7-0.7-2.5-1.1c-0.5-0.2-1.1-0.5-1.6-0.6c-1.4-0.4-2.7-1.1-4.2-0.9
		c0.1,0.3,0.1,0.5,0.1,0.8c-0.4,0.1-0.8,0.1-1.4,0.2c0.2,0.2,0.3,0.4,0.4,0.5c-0.7,0.1-1.5,0.3-2.4,0.4c0,0.1,0-0.1-0.1-0.4
		c-0.6,0.1-1.2,0.3-1.9,0.4c0,0-0.1-0.3-0.2-0.5c-1.2,0.2-2.3,0.4-3.4,0.7c-0.1,0-0.1-0.1-0.2-0.1c0.2-0.1,0.5-0.3,0.9-0.6h-1.1
		c-0.7-0.5-1.3-1.2-2.1-1.6c-0.9-0.4-1.7,0.4-2.6,0.6c-0.4-0.6-2.2-0.6-3.7,0.2c-0.1-0.1-0.1-0.1-0.2-0.2c0.2-0.1,0.5-0.3,0.7-0.4
		c0-0.1,0-0.1-0.1-0.2c-0.3,0-0.7,0.1-0.7,0.1c-0.4-0.2-0.7-0.4-0.8-0.3c-0.3,0.2-0.5,0.5-0.9,0.9c-0.4-0.1-1.4-0.5-1.6,0.6
		c-0.7,0.2-1.3,0.3-1.9,0.5c0,0.2,0,0.4,0,0.7c-0.6-0.2-0.8-1.1-1.6-0.5c0.1,0.2,0.1,0.5,0.2,0.8c0.2,0,0.4-0.1,0.5-0.1
		c-0.4,0.4-0.8,0.7-1.2,1.1c0.9,0.3,1.8-0.2,2.2,0.8c-0.8,0.3-1.6,0.6-2.5,1c0,0.1-0.1-0.1-0.2-0.3c-0.1,0.1-0.1,0.2-0.2,0.2
		c-0.2,0.3-0.4,0.5-0.7,0.8c-0.2,0.2-0.4,0.3-0.6,0.4c0.2,0.2,0.3,0.3,0.5,0.5c0.2,0.1,0.4,0.3,0.6,0.4c-0.3,0.3-0.5,0.6-0.8,0.9
		c-0.5-1.1-1.5-0.7-2.2-0.9c0,0.1,0,0.1-0.1,0.2c0.3,0,0.5,0.1,0.8,0.1c-0.2,0.3-0.4,0.6-0.4,0.7c1,0.4,1.9,0.8,3,1.2h-1.8
		c0.3,0.2,0.5,0.4,0.7,0.5c0.4,0.2,0.7,0.5,1.1,0.7c0.1,0.1,0,0.3-0.1,0.5c0.1,0.1,0.4,0.2,0.7,0.3c-0.8,0.7-0.1,1.3,0.1,1.9
		c0.3,0.9,1.1,1.2,1.7,1.8c0.8,0.9,1.8,1.7,2.4,2.7c0.5,0.8,0.6,1.8,0.8,2.7c0.4,2.5,1.4,4.6,3.4,6.3c0.3,0.3,0.7,0.4,1,0.7
		c1.8,1.5,3.6,3,5.5,4.4c0.8,0.6,1.9,1,2.9,1c2.6,0.1,4.7,1.2,6.7,2.6c1.9,1.3,4,1.6,6,0.6c2.2-1.1,4.1-2.9,5.3-5.2
		c0.7-1.2,1.5-2.2,2.2-3.4c1.2-1.8,1.6-3.9,2.1-5.9c0.3-1.2,0.6-2.4,1-3.6c1.1,0.3,1.6,1,1.7,1.9c0.1,0.8,0.3,1.5,0.5,2.2
		c0.2,0.7-0.1,1.2-0.9,1.3c0.3,0.4,0.6,0.6,0.7,0.9c0.1,0.3-0.1,0.6-0.2,0.9c0,0.1-0.2,0.2-0.3,0.3c-0.1,0.2-0.1,0.4-0.2,0.7
		c0.9,0.1,0.4,0.7,0.4,1.2c0,0.5,0.2,1,0.3,1.5c0.2,1.3,0.1,2.6-0.5,3.9c-0.2,0.4-0.3,0.9-0.4,1.4c-0.1,1.2-0.7,2-1.7,2.7
		c-0.8,0.5-1.3,1.4-2.1,2c-0.3,0.3-0.9,0.2-1.3,0.2c-0.3-0.2-0.6-0.4-0.9-0.7c0-0.1,0.1-0.4,0.3-0.8c-1,0.2-1.8,0.3-2.6,0.5
		c-0.4,0.1-0.9,0.1-1.3,0.1c-0.9,0-1.4,0.9-2.2,1.1c-0.1,0-0.2,0.2-0.3,0.2c-2.2,0.3-4.5,0.6-6.8,0.9c-0.1,0-0.3,0.1-0.3,0
		c-0.9-1-2.3-0.4-3.4-0.9c-0.9-0.4-2-0.4-3-0.6c-0.2,0.3-0.5,0.6-0.6,0.9c-0.2,0.4-0.5,0.9-0.4,1.1c0.7,1-0.2,1.4-0.7,1.5
		c-0.8,0.2-0.6,0.7-0.7,1.2c0.3,0.1,0.6,0.2,0.9,0.2c-0.9,0.4-0.9,0.4-1.1-1h-0.8c0.3,1.3-0.7,0.7-1.4,1c0.4,0.5,0.7,1,1,1.4
		c0.6,0.7,1.7,1.4,1.8,2.1c0,0.8,1.2,1.3,0.5,2.3c-0.2,0.2,0.1,1,0.3,1.2c0.6,0.4,0.4,1,0.7,1.4c0.5,0.5,0.5,1,0.6,1.6
		c0.1,0.8,0.7,1.6,1.1,2.5c0.2-0.3,0.4-0.5,0.5-0.7c0.5-0.2,2.4,0.8,2.7,1.4c0.3,0.9,0.2,1.2-0.6,1.6c0.6,1.5,2.2,2.5,2,4.4
		c-0.1-0.3-0.3-0.5-0.4-0.9c-0.1,0-0.3,0.1-0.7,0.1c0.2,0.3,0.2,0.5,0.4,0.6c1.1,1.2,1.3,2.6,1.2,4.1c0,0.6-0.3,1.2-0.3,1.8
		c0,0.8,0.4,0.9,1.4,0.6c-0.1,0.4-0.1,1-0.4,1.1c-0.9,0.4-0.9,1.3-1.2,1.9c-0.8-0.1-1.6,0-2.3-0.2c-0.6-0.1-1.2-0.4-1.6-0.7
		c-0.7-0.5-1.4-1.1-2-1.7c0-0.3,0.1-0.7,0-1c-0.3-0.9-0.6-1.8-0.9-2.7c-0.4-1.1-0.8-2.1-1.8-2.9c-0.6,0.6-1.1,1.1-2,0.3
		c-0.2-0.2-1-0.1-1.4-0.4c-0.1-0.1-0.4,0.2-0.6,0.4c-0.2,0.2-0.3,0.5-0.5,0.9c-1.1-0.7-0.9,1.1-1.8,0.9c0.4,1-0.2,2.1-1.2,2.4
		c-0.4,0.1-0.8,0.1-0.7,0.7c0,0.2-0.5,0.4-0.7,0.6c-0.4,0.4-0.8,1-1.1,1c-0.5,0.1-0.9-0.9-0.7-1.4c-1.2,0.5-2.4,1-3.6,1.5
		c-1,0.4-1,1.3-1.2,2.1c-0.2,0.7-0.2,1.4-0.2,2.2c-0.7,0-1.2,0.2-1,1.1c-0.1,0-0.2,0-0.3,0c-0.2-0.3-0.5-0.6-0.8-0.9
		c0,0-0.2,0-0.3,0.1c-0.8,0.6-1.1,0.5-1.6-0.3c-0.1-0.2-0.2-0.4-0.4-0.4c-1-0.3-1-1-1-1.8c0-0.8-0.4-1.1-1-1.6
		c-1.5-1.2-2.8-0.6-4.2,0.1c-0.5-1.7-1.7-0.6-2.6-0.7c-0.6,0-1.2,0.2-1.7,0.3c0.1-0.9,0.3-1.5,0.3-2.2c0-0.3-0.3-0.7-0.4-1
		c-0.3,0.3-0.9,0.5-0.9,0.8c-0.1,1-0.1,2,0,3c0,0.2,0.3,0.5,0.5,0.6c0.8,0.3,0.8,0.8,0.3,1.5c-0.5,0.8-1.2,1.6-1.1,2.7
		c0,0.2-0.2,0.4-0.4,0.5c-0.2,0.1-0.5,0.1-0.7,0c-1.3-0.8-2.8-0.3-4.2-0.7c-0.5-0.2-1.1-0.4-1.6-0.4c-0.5-0.3-1-0.7-1.6-1.1
		c-0.1,0.5-0.1,0.7-0.2,1c-0.2-0.1-0.3-0.2-0.5-0.3c-0.5-0.4-0.9-0.8-1.4-1.1c-1-0.5-1.4-1.2-1.1-2.3c0.4-1.2,1-2.3,1.2-3.5
		c0.2-1.1,0.1-2.3,0-3.4c0-0.9,0.3-1.5,0.8-2.2c0.9-1.1,1.4-2.4,2.3-3.5c0.7-1,0.8-2,0.9-3.1c0.1-0.5,0.3-1,0.5-1.4
		c0.4-0.2,0.7-0.3,1-0.5c-0.1-0.2-0.3-0.5-0.4-0.7c0.5-0.4,0.5-1.1,0.4-1.7c0-0.4,0-1.1,0.2-1.4c0.1-0.2,0.2-0.4,0.3-0.6
		c0.1-0.2,0.1-0.6,0.2-0.6c0.3,0,0.5,0,0.8,0.1c0.2,0,0.4,0.1,0.5,0.1c0.2-0.7,0.4-1.2,0.5-1.9c0-0.1-0.3-0.4-0.5-0.5
		c-0.4-0.2-1.2-0.1-1.3-0.3c-0.2-0.3,0.1-0.9,0.2-1.4c0-0.1,0-0.1,0-0.3c-0.2,0.2-0.2,0.3-0.2,0.3c-0.4-0.1-0.6-0.2-0.9-0.3
		c-0.3-0.1-0.8-0.1-0.9-0.3c-0.2-0.9-1.1-1.2-1.6-1.9c-0.5-0.7-2.9-0.7-3.4,0.1c-0.1,0.2-0.1,0.4-0.1,0.6c-0.4-0.1-0.8-0.3-1.1-0.4
		c-0.3-0.4-0.4-0.7-0.6-0.8c-0.4-0.2-0.9-0.4-1.3-0.3c-0.8,0.3-1.3,1.1-2.3,1.2c-0.1,0-0.4,0.2-0.4,0.3c0,0.5-0.4,0.5-0.7,0.6
		c-0.8,0.2-1.5,0.4-2.1,0.3c-0.1,0.3-0.1,0.5-0.2,0.6c-0.6,0.8-1.2,0.9-2,0.3c0.5-0.3,0.9-0.6,0.6-1.3c0.4-0.2,0.8-0.4,1.3-0.6
		c-0.4-0.6-0.4-1.4-1.4-1.3c-0.3,0-0.5-0.2-0.8-0.3c-1.4-0.3-2.7-0.7-4.1-1c-0.2,0-0.5,0.2-0.9,0.4c-0.2-0.2-1,0.2-0.9-0.8
		c0-0.1-0.4-0.2-0.6-0.3c-0.8-0.4-1.3-1-1.8-1.6c-0.1-0.2-0.6-0.1-0.9-0.1c-0.1,0-0.1,0.4-0.1,0.7c-0.1,0-0.4,0-0.6,0
		c-0.3-0.6,0.2-1.5-0.5-2.2c0-0.3,0.1-0.8,0.2-1.3c0.6,1.5,1.2,0,1.7,0c-0.1-0.8-0.2-1.5-0.4-2.2c-0.1-0.5-0.4-0.9-0.6-1.4
		c-0.1-0.5-0.7-1,0.1-1.6c0.2-0.2,0-0.9,0.1-1.4c0-0.6-0.4-1.1,0.1-1.7c0.2-0.2-0.2-0.9-0.2-1.3c-0.1-0.9,0-1.8,0.2-2.6
		c0.1-0.2,0.1-0.3,0.1-0.5c-0.4-1.3-0.2-1.7,1.2-2.5c0.3,0.5,0.6,0.9,0.7,1.4c0.5,1.3,0.8,2.7,1.4,4c0.7,1.6,1.4,3.2,2.4,4.6
		c1.3,1.9,2.8,3.7,4.4,5.3c0.9,0.9,2,1.6,3.1,2.2c0.9,0.4,1.8,0.2,2.7-0.3c0.9-0.6,1.9-1.1,2.9-1.6c0.5-0.2,0.7-0.7,1.4-0.8
		c0.5-0.1,0.9-0.6,1.5-0.3c0.2,0.1,0.7-0.4,1.1-0.5c1.3-0.3,2.5-0.6,3.8-0.9c0.7-0.2,1.5-0.5,2.1-1c1.3-1,2.5-2.1,3.7-3.1
		c0.8-0.6,1.6-1.2,2.4-1.8c0.2-0.2,0.5-0.5,0.6-0.7c0.5-1.8,1.1-3.5,1.6-5.3c0.1-0.3,0.1-0.7,0.1-1.1c0-0.9,0.1-1.7,0.5-2.6
		c0.1-0.2,0.1-0.5,0-0.8c0-0.5,0.4-0.8,0.6-1.2c0.6-1.1,1.9-1.2,2.5-2.2c0.2-0.4,0.3-0.8,0.6-1.2c0.1-0.1,0.4-0.1,0.8-0.3
		c-0.1-0.4-0.3-0.8-0.4-1.1c0.3,0,0.6,0.1,1,0.1c0-0.2-0.1-0.4-0.2-0.8c0.3,0.1,0.6,0.3,0.9,0.3c0.3,0,0.6-0.2,1-0.5
		c-0.6-0.1-1.3-0.3-2.1-0.5c0.3-0.2,0.7-0.4,1-0.6c-0.2-0.2-0.3-0.4-0.5-0.6c-0.5-0.5-1.4-0.8-0.4-1.6c-1.1-0.4-1.1-0.4-0.6-1
		c-0.2,0.1-0.5,0.1-0.7,0.2c0.3-1.2,0.3-1.2-1.2-0.8v-0.7c-0.1,0-0.1-0.1-0.2-0.1c-0.1,0.3-0.2,0.5-0.3,0.8c0-0.2-0.1-0.3-0.1-0.5
		c-0.5-0.1-1-0.3-1.5-0.4c-0.4-0.1-0.9-0.2-1.3-0.4c-0.3-0.1-0.6-0.3-0.8-0.5c0-0.2-0.1-0.5-0.1-0.8c-0.7,0.2-0.7-1.4-1.7-0.7
		c-0.6,0.4-1.4,0.6-2,0.9c0.4-0.8,0.8-1.7,1.3-2.6c-0.1,0-0.2-0.1-0.3,0c-0.3,0.1-0.6,0.7-1,0.1c-0.1-0.1-0.7,0.2-1,0.3
		c-0.4,0.2-0.7,0.4-0.8,0.4c-1.7-1.2-3.5-1-5.3-0.7c0.1-0.1,0.2-0.2,0.5-0.5c-2.7,0.6-5.1,1.2-7.4,1.7c0,0,0-0.1-0.1-0.1
		c0.2-0.1,0.3-0.2,0.5-0.3c0-0.1,0-0.1,0-0.2c-0.6,0.1-1.2,0.3-1.8,0.4c-0.7,0.1-1.3,0.2-2,0.3c-1.1,0.1-1.5,0.5-1.7,1.7
		c-0.2-0.2-0.3-0.4-0.5-0.7c-1.9,1-4,1.9-5.8,3.1c-1.1,0.7-2,1.7-2.9,2.7c-0.7,0.7-1.3,1.5-1.9,2.2c-0.1,0.1-0.4,0.2-0.5,0.2
		c-0.5-0.1-1-0.2-1.5-0.3c0.2-2.1,0.4-4.2,0.7-6.2c0.2-1.4,0.5-2.8-0.1-4c-0.6-1.2-0.5-2.4-0.9-3.6c-0.3-0.7-0.6-1.6-0.8-2.3
		c-0.3-1.4-1-2.5-1.5-3.7c-0.1-0.3-0.5-0.5-0.8-0.7c-0.1,0.1-0.2,0.1-0.3,0.2c-0.5-2-1.1-4-1.6-6.1c-0.5-0.2-0.7,1.1-1.4,0.2v2
		c-0.2-0.3-0.4-0.5-0.4-0.7c0.2-0.8,0.4-1.6,0.6-2.3c0-0.3-0.1-0.6-0.2-0.8c-0.1-0.4-0.5-0.7-0.4-1c0.5-2.4,1.2-4.7,1.8-7.1
		c0.8-2.8,1.5-5.7,2.3-8.5c1.1-3.7,2.8-7.1,5-10.3c1.7-2.4,3.5-4.8,5.3-7.2c2.4-3.2,5.7-5.4,9-7.5c4.1-2.6,8.7-4.3,13.4-5.2
		c3.5-0.7,7.1-1.4,10.7-2.1c2.6-0.5,5.3-0.8,7.9-0.5c1.8,0.2,3.6,0.6,5.4,1.1c3.8,1,7.6,2,11.3,3.2c5.1,1.6,9.7,4.4,13.9,7.7
		c5.6,4.3,10,9.6,13.4,15.7c1.6,2.9,2.8,6,3.5,9.2c0.4,1.8,0.5,3.6,0.7,5.4c0.1,0.7,0.2,1.7-0.2,2c-1,1,0.3,1.6,0.1,2.6
		c-0.4,1.6-0.7,3.2-1.3,4.8c-0.6,1.4-1,2.8-1.5,4.1c-0.2,0.4-0.3,0.9-0.6,1.2c-0.5,0.6-0.2,1.6-1,2C110.2,78,110.3,78.5,110.3,78.9"
		/>
	<path id="XMLID_32_" class="st0" d="M103.9,128.8c0.4-0.5,0.7-0.9,1.2-1.4c0.5,0.1,1.3,0.4,1.7-0.5c0.1-0.2,0.4-0.2,0.6-0.3
		c1.4-0.3,2-1.4,2.8-2.3c0.5-0.6,1.1-1.2,1.6-1.8c0.1,0.5,0.8,0.9,0.2,1.5c-0.1,0.1,0.3,0.7,0.4,1c0.1,0.2,0,0.5,0,0.7
		c0.1,0.3,0.2,0.5,0.3,0.7c0.1,0,0.2,0,0.3,0c-0.3,0.3-0.6,0.5-0.8,0.9c-0.1,0.2-0.2,0.6-0.1,0.6c0.6,0.2-0.1,0.5,0.1,0.8
		c-0.6,0.4-1,1.2-2,1c-0.4-0.1-0.9,0.4-1.3,0.7c-0.4,0.3-0.6,0.9-1,1.1c-0.4,0.2-0.9,0-1.4,0c0-0.1,0-0.2,0-0.4h1.3
		c0-0.1,0-0.1,0-0.2c-0.3-0.1-0.5-0.2-0.9-0.3c0.6-0.4,0.4-0.7-0.1-1.1c-0.5-0.4-0.8-0.2-1.2,0.2c-0.3,0.3-0.6,0.6-1,0.7
		c-0.3,0.1-0.7-0.1-0.9-0.3c-0.1-0.1,0-0.5,0.1-0.7C103.9,129.1,103.9,128.9,103.9,128.8"/>
	<path id="XMLID_31_" class="st0" d="M24.3,130.5c-0.3,0.4-0.5,0.8-0.8,1.2c0.6,0,1.2,0.2,1.8,0.6c0.2,0.1,0.8-0.2,1.3-0.3
		c-0.6,0.9-1.5,1.2-2.3,0.9c0,0.6,0,1.3,0,2c0,0.1-0.4,0.4-0.5,0.3c-0.6-0.5-1.5-0.8-1.5-1.7c0-0.6-0.3-0.8-0.8-0.8
		c-0.3,0-0.5,0-0.8,0c-0.9,0.1-1.4-0.3-1.5-1.2c-0.7,0-1.5,0.1-1.8-0.8c-0.1-0.3-0.2-0.5-0.3-0.8c-0.1-0.5-0.1-0.9-0.1-1.4
		c0-0.3-0.4-0.9,0.3-1c0.1,0,0.2-0.1,0.2-0.2c0-0.5-0.1-1-0.1-1.4c0.7,0.2,1.6,0.4,2.2,0.8c0.9,0.7,1.7,1.5,2.4,2.4
		C22.8,130,22.8,130.1,24.3,130.5"/>
	<path id="XMLID_30_" class="st0" d="M54.1,161.2c-0.2-0.5-0.5-1-0.6-1.5c-0.1-0.4-0.3-1-0.1-1.4c0.2-0.4,0.7-0.7,1.1-0.8
		c0.2-0.1,0.7,0.3,0.9,0.6c0.5,0.9,0.9,1.9,0.4,3.1H54.1z"/>
	<path id="XMLID_29_" class="st0" d="M11.5,73c0.1,1.6,0.2,3.2,0.2,4.8c0,0.1,0,0.3,0,0.4c-0.1,0.5-0.2,0.9-0.3,1.5
		c-0.1,0-0.5-0.1-0.5-0.2c-0.2-0.6-0.2-1.3-0.3-1.9c0-0.2,0-0.4,0-0.6c0-1.2-0.1-2.3,0-3.5C10.6,73.2,10.7,72.6,11.5,73"/>
	<path id="XMLID_28_" class="st0" d="M77.2,155.4c-1-0.9,0.2-1.5,0.1-2.4c1.2,0.2,1-0.9,1.5-1.4c0.2,0.2,0,0.2-0.2,2.1
		C78.6,154.8,77.7,154.8,77.2,155.4"/>
	<path id="XMLID_27_" class="st0" d="M78.9,159.7c-0.4-0.4-0.8-0.7-1.3-1.3c0.6,0.3,1.1,0.5,1.6,0.8
		C79.1,159.5,78.9,159.6,78.9,159.7"/>
	<path id="XMLID_26_" class="st0" d="M75.7,125.5c0.1,1.6,1.8,2.7,0.6,4.3c-0.2-0.1-0.5-0.2-0.8-0.4c-0.3,0.5-0.6,1-0.9,1.5
		C74.2,130.2,74.7,127.2,75.7,125.5"/>
	<path id="XMLID_25_" class="st0" d="M62.4,136.3c0.5,0.7,1,1.3,1.5,2c-1.4,0.5-1.7,0.4-1.7-0.8c0-0.4-0.1-0.7-0.1-1.1
		C62.2,136.4,62.3,136.3,62.4,136.3"/>
	<path id="XMLID_24_" class="st0" d="M64.6,138.3c0.3-0.2,0.7-0.5,1.2-0.8c0.1,0.1,0.2,0.1,0.3,0.1c-0.2,0.8-0.5,1.5-0.8,2.4
		C65.1,139.4,64.9,138.9,64.6,138.3"/>
	<path id="XMLID_23_" class="st0" d="M57.2,115.8c0.3-0.4,0.6-0.8,1-1.2C58.3,116.1,58.2,116.1,57.2,115.8"/>
	<path id="XMLID_5_" class="st1" d="M73.9,29.8c-0.5,1-0.3,2.3,0.5,3.1C74.2,32,74.1,30.9,73.9,29.8 M99.5,22.5
		c0.1-0.2,0.2-0.3,0.1-0.4c-0.1-1.1-0.2-2.1-0.5-3.1c-0.1-0.3-0.6-0.5-0.9-0.7c-0.2,0.3-0.5,0.6-0.5,0.9c0,0.9,0.1,1.8,0.1,2.7
		C98.6,21.4,98.8,21.5,99.5,22.5 M5.5,46.4c0.3,1,0.6,2.2,1.4,3.1c0.1,0.1,0.4,0.2,0.6,0.3c0.1-0.2,0.1-0.4,0.2-0.6
		c0.1-0.2,0.2-0.5,0.4-0.6c0.5-0.2,0.4-0.5,0.2-0.8C8.1,47.5,8,47.2,7.8,47C7.4,46.5,7,46,6.5,45.7C6,45.3,5.6,45.7,5.5,46.4
		 M14.2,49.7c-0.1-0.3-0.1-0.7-0.2-0.9c-0.5-0.7-0.9-1.3-1.5-2c-0.2-0.2-0.5-0.5-0.7-0.6c-0.2-0.1-0.6-0.1-0.6-0.1
		c-0.2,0.4-0.4,0.9-0.5,1.4c-0.1,0.4,0.3,0.7,0.7,0.8c0.2,0,0.5,0.2,0.7,0.3c0.4,0.4,0.7,0.9,1.1,1.2c0.2,0.2,0.5,0.3,0.7,0.4
		C14,50.1,14.1,49.9,14.2,49.7 M94.8,25.9c0.4,0,0.6-0.3,0.6-0.9c0-0.7,0.2-1.3,0.6-1.9c0.1-0.1,0.2-0.4,0.1-0.6
		c-0.2-0.5-0.5-1-0.8-1.5c-0.2-0.2-0.3-0.6-0.8-0.4c-0.4,0.2-0.7,0.4-0.7,0.9c0,0.9-0.1,1.8,0,2.7c0,0.7,0.8,1.3,1.5,1.1
		C95,25.5,94.9,25.7,94.8,25.9 M26.7,46.5c0-0.1,0-0.2,0-0.3c-0.4-1.1-2-2-3.1-1.9c-0.6,0.1-1.2,0.7-1.1,1.2
		c0.2,0.9,0.5,1.8,0.8,2.6c0.2,0.5,0.8,0.7,1.3,0.5c0.5-0.2,0.6-0.7,0.5-1.1c-0.1-0.6,0.1-0.8,0.6-0.9C26,46.6,26.4,46.5,26.7,46.5
		 M96.6,20.1c0.3-0.7,0.2-1.2,0.2-1.8c-0.1-2.5-1-4.8-1.4-7.2c-0.1-0.5-0.3-1-0.5-1.6c-0.1-0.1-0.2-0.2-0.4-0.3c0,0-0.2,0.2-0.2,0.3
		c0,1.1-0.1,2.2,0.1,3.2C94.6,15.3,95.4,17.7,96.6,20.1 M31.4,45.4c0.2-0.1,0.3-0.1,0.4-0.1c0.8-0.2,1.5-0.3,2,0.5
		c0.2,0.3,0.5,0.6,0.8,0.9c0.4,0.4,0.8,0.3,1-0.2c0.8-1.6,0-3.4-1.7-3.9c-0.7-0.2-1.4-0.2-2,0.4C31.2,43.7,31.3,44.5,31.4,45.4
		 M77.4,31.2c0.3-0.2,0.6-0.4,0.8-0.5c-0.3-1.2-0.9-1.9-2.2-2c0.8-0.3,1.5,0.1,2.3,1.3c-0.2-0.7-0.7-1.1-1.3-1.5
		c-0.8-0.5-2.3,0.3-2.6,1.1c-0.3,0.8-0.5,1.6-0.1,2.5c0.3,0.6,0.7,1.2,1.2,1.7c0.4,0.4,0.7,0.2,0.9-0.3c0.1-0.6,0.2-1.1,0.4-1.7
		c0,0,0.1,0,0.1,0c-0.1,0.6-0.1,1.2-0.2,1.9c0,0,0,0,0.1,0C77,32.8,77.2,32.1,77.4,31.2C77.6,31.3,77.5,31.3,77.4,31.2 M82.8,29.5
		c0.1-0.1,0.3-0.3,0.5-0.4c0.7-0.6,0.9-0.6,1.5,0.1c0.1,0.1,0.2,0.3,0.3,0.4c0.6,0.6,1.3,0.4,1.5-0.3c0.3-1,0.2-2-0.3-3
		c-0.2-0.4-0.5-0.7-1-0.7c-0.1,0-0.3-0.2-0.4-0.3c-0.1-0.1-0.3-0.2-0.4-0.1c-0.1,0-0.1,0.2-0.2,0.4c-0.1-0.1-0.2-0.2-0.3-0.3
		c-0.8,0.4-1.2,1.1-1.4,1.9C82.2,27.9,82,28.8,82.8,29.5 M8.9,45.8c-0.4-1.3-0.7-2.6-1.1-3.8c-0.6-1.9-2-3.5-3-5.2
		c-0.1-0.2-0.4-0.3-0.6-0.4c-0.1,0.2-0.2,0.5-0.2,0.7c0.1,0.7,0.2,1.4,0.5,2c1.1,2.3,2.2,4.5,3.3,6.7c0,0.1,0.1,0.2,0.2,0.2
		c0.2,0.1,0.4,0.2,0.5,0.1C8.7,46.1,8.8,45.9,8.9,45.8 M50.4,37.6c-1.2-0.1-2.3,1.1-2.8,2.2c-0.1,0.2-0.2,0.4-0.1,0.6
		c0.3,1.1,0.8,2,1.8,2.7c0.5,0.3,0.9,0.1,1.2-0.3c0.2-0.2,0.3-0.5,0.3-0.8c0.2-1.5,0.2-1.6,1.7-1.9c0.1,0,0.3,0,0.3-0.1
		c0.1-0.2,0.3-0.4,0.3-0.6C52.8,38.4,51.5,37.6,50.4,37.6 M58,38.3c0.4-0.2,0.8-0.4,1.2-0.6c0.3-0.1,0.6,0,0.9,0.1
		c0.5,0.3,0.9,0.6,1.3,1c0.7,0.5,1,0.4,1.4-0.3c0.5-0.7,0.4-1.5,0.2-2.3c-0.2-0.7-0.1-1.8-1.3-1.8c0,0,0-0.1-0.1-0.1
		c-0.1-0.2-0.9-0.5-1-0.4c-0.5,0.3-1,0.5-1.4,0.8C58,35.5,57.5,37,58,38.3 M28.1,43.7c1.7-2-1.2-9.1-3.3-10.3
		c-0.1,0.4-0.3,0.8-0.3,1.2c0,0.6,0.1,1.2,0.2,1.8c0.4,1.5,0.9,3.1,1.4,4.6c0.3,0.8,0.9,1.4,1.4,2.1C27.7,43.3,27.9,43.5,28.1,43.7
		 M77,16.8c-0.2-0.1-0.5-0.2-0.7-0.2c-0.1,0-0.2,0.4-0.2,0.7c-0.1,0.4-0.1,0.8-0.1,1.3c0,1.5,0.5,2.9,1.1,4.3c0,0.1,0.1,0.2,0.1,0.3
		c0.8,0.9,1.4,2,1.6,3.2c0,0.2,0.5,0.5,0.7,0.6c0.1,0,0.3-0.2,0.4-0.4c0,0.1,0.1,0.3,0.2,0.5c1-1.7-1-8.7-3-10.7
		c-0.1,0-0.1-0.1-0.3-0.2C76.9,16.6,76.9,16.7,77,16.8 M54.6,30.7c0-0.2,0.1-0.5,0-0.7c-0.3-0.8-0.6-1.5-1-2.2
		c-0.4-0.8-1-1.5-1.6-2.2c-0.1-0.2-0.5-0.3-0.8-0.3C51,25.4,51,25.7,51,26c0,0.3,0.1,0.7-0.1,0.9c-0.6,0.8-0.3,1.6-0.2,2.4
		c0.5,2.5,1.6,4.8,3.1,6.8c0.2,0.3,0.5,0.7,0.9,0.5c0.3-0.1,0.5-0.5,0.6-0.8c0.2-1.4,0.3-2.7-0.1-4.1C55,31.3,54.8,31.1,54.6,30.7
		 M85.5,22.1c0.7,1.3,1.4,2.6,2.3,3.7c1.1,1.5,2.3,2.9,3.6,4.4c0.2-0.3,0.2-0.5,0.3-0.7c0,0.1,0.1,0.2,0.1,0.2c0,0,0.1,0,0.1,0
		c0.2-1.1,0.6-2.2,0.7-3.3c0.1-2,0.1-4,0-5.9c-0.1-1.7-0.4-3.3-0.6-5.1c0.3-0.1,0.6-0.1,1.1-0.2c0-0.2,0-0.6,0-1
		c-0.1-1.4-0.4-2.7-0.4-4.1c-0.1-1.7-0.2-3.5-0.2-5.2c0-1.6,0.2-3.3,0.4-5.1c0.7,0.4,0.9,1,1.1,1.5c0.5,1,0.8,2,1.2,3.1
		c0.3,0.9,0.4,1.8,0.7,2.7c0.2,0.6,0.4,1.1,0.5,1.7c0.2,0.8,0.3,1.7,0.6,2.5c0.1,0.3,0.3,0.6,0.5,0.9c0.2-0.3,0.4-0.5,0.6-0.9
		c0.2,0.8,0.3,1.6,0.5,2.4c0.6,2.1,1,4.2,1.8,6.2c0.8,1.9,1,3.9,1.1,5.9c0.1,2.1,0.2,4.1,0.2,6.2c0,0.4-0.2,0.9-0.4,1.2
		c-0.9,1.2-2,2.2-3.4,2.9c-0.8,0.4-1.4,1.1-2.2,1.6c-0.6,0.4-1.2,0.8-1.9,1.1c-0.5,0.3-1,0.6-1.5,0.9c-0.2,0.1-0.5,0.2-0.8,0.2
		c-1,0.3-1.9,0.9-2.7,1.5c-0.3,0.2-0.7,0.3-1.1,0.4c-0.6,0.2-1.3,0.5-1.9,0.7c-0.1,0-0.2,0.1-0.2,0.2c-0.1,0.8-0.6,0.5-1,0.5
		c-0.5,0-1,0.2-1.4,0.4c-1.2,0.5-2.4,1-3.6,1.5c-0.9,0.4-1.7,0.9-2.6,1.2c-2.4,0.9-4.9,1.7-7.4,2.5c-2.8,1-5.6,1.9-8.5,2.9
		c-3.2,1-6.3,2-9.5,3c-1.3,0.4-2.6,0.7-3.9,1c-1,0.3-1.9,0.7-2.9,1c-1.7,0.5-3.4,1-5.1,1.3c-1.4,0.3-2.9,0.4-4.4,0.7
		c-1.7,0.3-3.4,0.7-5.2,0.7c-0.6,0-1.1,0.3-1.7,0.4c-0.6,0.1-1.3,0-1.9,0c-0.4,0-0.9-0.1-1.2,0.4c-0.2,0.3-0.8,0.3-1.2,0.4
		c-0.9,0.1-1.8,0.1-2.7,0.2c-1.5,0.2-2.9-0.2-4.3-0.4c-0.6-0.1-1.1-0.2-1.7-0.3c-0.7-0.1-1.4-0.3-2-0.5c-1.6-0.3-2.4-1.4-3.2-2.7
		c-1.2-1.9-2.5-3.7-3.5-5.7c-0.8-1.6-1.3-3.3-1.9-5c-0.6-1.6-1.3-3.1-2-4.7c-0.2-0.5-0.4-0.9-0.7-1.5c0.2,0,0.3,0,0.4,0
		c0.2,0,0.5,0,0.7,0c0-0.3,0-0.6-0.1-0.8c-0.7-1.7-1.5-3.4-2.1-5.1c-0.5-1.5-0.8-3-1.1-4.5c0-0.2,0-0.4,0-0.7c0.1,0,0.1-0.1,0.2-0.1
		c0.4,0.4,0.8,0.7,1.1,1.1c0.5,0.6,0.9,1.2,1.4,1.7c2.4,2.4,3.9,5.3,5.6,8.1c0,0.1,0.1,0.1,0.1,0.2C9.1,41,9.2,41,10,40.4
		c0.3,0.4,0.5,0.8,0.8,1.2c0.5,0.8,1,1.7,1.5,2.5c0.2,0.3,0.5,0.6,0.9,0.9c0.7,0.6,1.4,1,1.5,2.1c0.1,0.7,0.9,1.4,1.4,1.9
		c0.7,0.8,1.6,1.4,2.4,2.1c0.3,0.2,0.6,0.5,0.9,0.7c0.9-1.1,1.1-2.4,1.2-3.7c0.1-2.3-0.3-4.6-1-6.8c-0.2-0.7-0.5-1.3-0.8-1.9
		c-0.3-0.5-0.2-1.3,0.2-1.8c0.6,0.3,1.1,0.7,1.7,0.9c0.2,0.1,0.5,0.2,0.6,0.1c0.1-0.2,0.2-0.5,0.2-0.7c-0.1-0.4-0.4-0.8-0.6-1.2
		c-0.1-0.3-0.3-0.6-0.4-0.9c-0.2-1.6-0.4-3.2-0.5-4.7c0-1,0.1-2,0.3-3c0.2-1.1,0.4-2.2,0.7-3.3c0.2-0.8,0.4-0.8,1-0.3
		c1.2,1.1,2.4,2.2,3.6,3.2c0.9,0.7,1.6,1.5,2,2.5c0,0.1,0.1,0.2,0.2,0.2c0.8-0.2,0.9,0.5,1.1,0.9c0.8,1.6,1.6,3.2,2.4,4.8
		c0.1,0.2,0.3,0.4,0.4,0.4c0.2,0,0.3-0.2,0.4-0.4c0.2-0.4,0.4-0.8,0.6-1.1c0.1-0.2,0.3-0.3,0.5-0.3c0.1,0,0.3,0.2,0.4,0.4
		c0.9,2.4,2,4.8,3.6,6.8c1.6,2,3.4,3.8,5.6,5.3c0.4,0.3,0.7,0.2,0.8-0.3c0.5-1.6,1-3.3,1.4-4.9c0.5-2.2,0.4-4.5,0-6.7
		c-0.1-0.8-0.3-1.5-0.6-2.2c-0.2-0.5-0.1-1,0.2-1.4c0.2,0.1,0.4,0.2,0.6,0.3c0.4,0.1,0.8,0.3,1.2,0.2c0.3,0,0.8-0.1,0.7-0.7
		c-0.2-1.2-0.5-2.3-0.6-3.5c-0.2-1.6-0.6-3.2,0-4.9c0.1-0.2,0-0.5,0.1-0.8c0.5-2,1-3.9,1.6-5.9c0.2-0.6,0.5-0.5,0.9-0.2
		c1.2,1,2.3,1.9,3.4,2.9c1.9,1.7,3.4,3.8,4.5,6.2c0.2,0.5,0.7,1,1.1,1.5c-0.3,0.3-0.1,1.2,0.3,1.5c0.3,0.2,0.8,0.2,1-0.2
		c0.3-0.5,0.5-1.1,0.9-1.6c0.2-0.3,0.4-0.5,0.7-0.8c0.3,1,0.6,1.8,0.9,2.7c0.7,2.1,1.6,4,3.1,5.6c1,1,2,2.1,3.1,3.1
		c0.5,0.5,1.1,0.9,1.7,1.3c0.5,0.3,0.9,0.1,1-0.5c0.3-1.1,0.5-2.2,0.7-3.3c0.6-2.6,0.5-5.2,0.1-7.9c-0.2-1.1-0.5-2.2-0.8-3.4
		c-0.1-0.2-0.1-0.5-0.2-0.7c0-0.1,0.1-0.1,0.1-0.2c0.5,0.2,1.1,0.5,1.6,0.7c0.4,0.2,0.6,0.1,0.9-0.3c0.7-0.9,0.2-1.6,0.1-2.4
		c-0.5-2.9-0.6-5.9-0.1-8.9c0.2-1.3,0.3-2.7,0.8-3.9c0-0.1,0.1-0.1,0.1-0.2c2.3,1.9,3.8,4.4,5.6,6.7c-0.1-0.2-0.1-0.4-0.2-0.6
		c0,0,0.1,0,0.1-0.1c0.5,0.9,0.9,1.7,1.4,2.6c0,0.1-0.1,0.2-0.1,0.3c0,0.1-0.1,0.2-0.1,0.3c0,0.4,0.1,0.7,0.2,1.1
		c0.2,0.8,0.5,1.5,0.8,2.4c0.1-0.3,0.2-0.5,0.3-0.7c0.1,0.2,0.1,0.4,0.2,0.5c0.5,0.1,0.8-0.1,1-0.6c0.1-0.2,0.2-0.4,0.3-0.6
		c0.2-0.4,0.6-0.4,0.8,0c0.2,0.4,0.4,0.8,0.5,1.2C85.1,20.6,85.3,21.4,85.5,22.1c-0.2-0.3-0.5-0.6-0.7-0.9c0,0-0.1,0-0.1,0
		c0.2,0.6,0.5,1.2,0.7,1.8c0.1,0,0.2,0,0.3-0.1C85.6,22.7,85.5,22.4,85.5,22.1"/>
	<path id="XMLID_4_" class="st1" d="M78.4,19.1c1.1,1.8,1.5,3.8,1.6,5.9c-0.2-1-0.3-2-0.6-3c-0.3-1-0.7-1.9-1.1-2.8
		C78.3,19.1,78.3,19.1,78.4,19.1"/>
</g>
</svg>
